# xmcd
#
# Track frame offsets:
#	182
#	10690
#	24970
#	38222
#	47187
#	58887
#	77807
#	91820
#	103935
#	116385
#	131962
#	146642
#	160072
#	171947
#	187235
#	200037
#	213530
#	225455
#	238230
#	249362
#
# Disc length: 3542 seconds
#
# Revision: 0
# Processed by: cddbd v1.4PL0 Copyright (c) Steve Scherf et al.
# Submitted via: dBpowerAMP V4.0
#
DISCID=1e0dd414
DTITLE=Rafael Montaño - Alma llanera y otros exitos
DYEAR=1900
DGENRE=
TTITLE0=alma llanera
TTITLE1=danza oriental
TTITLE2=margarita
TTITLE3=tucacas
TTITLE4=zulia querida
TTITLE5=barlovento
TTITLE6=galeron margariteño
TTITLE7=meridesa
TTITLE8=bella zulianita
TTITLE9=coro gentil
TTITLE10=el marino
TTITLE11=el adios
TTITLE12=ramoncito en cimarrona
TTITLE13=sancocho de huesito
TTITLE14=mar y llano
TTITLE15=chubasco llanero
TTITLE16=pajarillo
TTITLE17=guayabo negro
TTITLE18=el conoto
TTITLE19=merengue final
EXTD=
EXTT0=
EXTT1=
EXTT2=
EXTT3=
EXTT4=
EXTT5=
EXTT6=
EXTT7=
EXTT8=
EXTT9=
EXTT10=
EXTT11=
EXTT12=
EXTT13=
EXTT14=
EXTT15=
EXTT16=
EXTT17=
EXTT18=
EXTT19=
PLAYORDER=
